<svg width="181" height="46" viewBox="0 0 181 46" fill="none" xmlns="http://www.w3.org/2000/svg">
<rect x="39" width="53" height="45" fill="#3B64F8"/>
<rect x="1" y="3" width="5.45732" height="5.11111" fill="#3B64F8"/>
<rect x="28.1951" y="20.4445" width="5.45732" height="5.11111" fill="#3B64F8"/>
<rect x="29" y="5" width="5.45732" height="5.11111" fill="#3B64F8"/>
<rect x="17.2805" y="20.4445" width="5.45732" height="5.11111" fill="#3B64F8"/>
<rect x="12.9147" y="5.11108" width="5.45732" height="5.11111" fill="#3B64F8"/>
<rect x="18.3719" y="1.02222" width="5.45732" height="5.11111" fill="#3B64F8"/>
<rect x="10" y="19" width="5.45732" height="5.11111" fill="#3B64F8"/>
<rect x="28.1951" y="25.5555" width="5.45732" height="5.11111" fill="#3B64F8"/>
<rect x="22.7378" y="30.6667" width="5.45732" height="5.11111" fill="#3B64F8"/>
<rect x="14" y="26" width="5.45732" height="5.11111" fill="#3B64F8"/>
<rect x="10" y="39" width="5.45732" height="5.11111" fill="#3B64F8"/>
<rect x="17.2805" y="35.7778" width="5.45732" height="5.11111" fill="#3B64F8"/>
<rect x="34" y="40" width="5.45732" height="5.11111" fill="#3B64F8"/>
<rect x="11.8231" y="30.6667" width="5.45732" height="5.11111" fill="#3B64F8"/>
<rect x="7.45728" y="11.2444" width="5.45732" height="5.11111" fill="#3B64F8"/>
<rect x="4.72864" y="25.5555" width="5.45732" height="5.11111" fill="#3B64F8"/>
<rect y="35" width="5.45732" height="5.11111" fill="#3B64F8"/>
<rect x="2" y="17.8889" width="5.45732" height="5.11111" fill="#3B64F8"/>
<rect x="23" y="38" width="5.45732" height="5.11111" fill="#3B64F8"/>
<rect x="22.7378" y="5.11108" width="5.45732" height="5.11111" fill="#3B64F8"/>
<rect x="28.1951" y="10.2222" width="5.45732" height="5.11111" fill="#3B64F8"/>
<rect x="34" width="5.45732" height="5.11111" fill="#3B64F8"/>
<rect x="34" y="15" width="5.45732" height="5.11111" fill="#3B64F8"/>
<rect x="34" y="5" width="5" height="5" fill="#3B64F8"/>
<rect x="34" y="26" width="5.45732" height="5.11111" fill="#3B64F8"/>
<rect x="34" y="31" width="5.45732" height="5.11111" fill="#3B64F8"/>
<rect x="29" y="36" width="5.45732" height="5.11111" fill="#3B64F8"/>
<rect x="22.7378" y="15.3333" width="5.45732" height="5.11111" fill="#3B64F8"/>
<rect x="17.2805" y="10.2222" width="5.45732" height="5.11111" fill="#3B64F8"/>
</svg>
